<?xml version="1.0" encoding="UTF-8"?>
<svg width="16px" height="16px" viewBox="0 0 16 16" version="1.1" xmlns="http://www.w3.org/2000/svg" xmlns:xlink="http://www.w3.org/1999/xlink">
    <!-- Generator: Sketch 48 (47235) - http://www.bohemiancoding.com/sketch -->
    <title>Instagram</title>
    <desc>Created with Sketch.</desc>
    <defs>
        <path d="M14.52,7.96 L14.52,11.189 C14.513,11.699 14.418,12.203 14.24,12.68 C13.971,13.379 13.418,13.931 12.72,14.2 C12.243,14.378 11.739,14.473 11.23,14.481 L8,14.481 L4.77,14.481 C4.261,14.473 3.757,14.378 3.28,14.2 C2.932,14.071 2.618,13.866 2.36,13.6 C2.094,13.342 1.889,13.027 1.76,12.68 C1.582,12.203 1.487,11.699 1.48,11.189 L1.48,7.96 L1.48,4.731 C1.487,4.221 1.582,3.717 1.76,3.24 C1.889,2.893 2.094,2.578 2.36,2.32 C2.618,2.054 2.932,1.849 3.28,1.72 C3.757,1.542 4.261,1.447 4.77,1.439 L8,1.439 L11.23,1.439 C11.739,1.447 12.243,1.542 12.72,1.72 C13.068,1.849 13.382,2.054 13.64,2.32 C13.906,2.578 14.111,2.893 14.24,3.24 C14.418,3.717 14.513,4.221 14.52,4.731 L14.52,7.96 Z M15.63,2.76 C15.862,3.381 15.987,4.037 16,4.7 L16,8 L16,11.3 C15.977,11.982 15.835,12.656 15.58,13.29 C15.165,14.365 14.315,15.215 13.24,15.63 C12.619,15.862 11.963,15.987 11.3,16 L8,16 L4.7,16 C4.017,15.977 3.344,15.835 2.71,15.58 C2.175,15.381 1.691,15.066 1.29,14.66 C0.884,14.26 0.57,13.774 0.37,13.24 C0.138,12.619 0.013,11.963 0,11.3 L0,8 L0,4.7 C0.029,4.034 0.171,3.378 0.42,2.76 C0.62,2.226 0.934,1.74 1.34,1.34 C1.741,0.934 2.226,0.619 2.76,0.42 C3.378,0.171 4.034,0.029 4.7,0 L8,0 L11.3,0 C11.966,0.029 12.622,0.171 13.24,0.42 C13.792,0.613 14.295,0.928 14.71,1.34 C15.116,1.74 15.43,2.226 15.63,2.76 Z M8,10.6699 L8,10.6599 C6.919,10.6599 5.945,10.0079 5.532,9.0099 C5.12,8.0109 5.35,6.8609 6.116,6.0989 C6.881,5.3359 8.031,5.1089 9.029,5.5259 C10.026,5.9419 10.674,6.9189 10.67,7.9999 C10.67,9.4749 9.475,10.6699 8,10.6699 Z M8,3.8909 C5.73,3.8909 3.89,5.7309 3.89,7.9999 C3.89,10.2699 5.73,12.1089 8,12.1089 C10.27,12.1089 12.11,10.2699 12.11,7.9999 C12.11,6.9099 11.677,5.8639 10.906,5.0939 C10.135,4.3229 9.09,3.8909 8,3.8909 Z M12.27,2.7695 C11.74,2.7695 11.31,3.1995 11.31,3.7305 C11.31,4.2595 11.74,4.6895 12.27,4.6895 C12.8,4.6895 13.23,4.2595 13.23,3.7305 C13.23,3.1995 12.8,2.7695 12.27,2.7695 Z" id="path-1"></path>
    </defs>
    <g id="CRX_v2_Large" stroke="none" stroke-width="1" fill="none" fill-rule="evenodd" transform="translate(-1261.000000, -100.000000)">
        <g id="main-wrapper">
            <g id="navigation" transform="translate(90.000000, 90.000000)">
                <g id="social-links" transform="translate(1171.000000, 10.000000)">
                    <mask id="mask-2" fill="white">
                        <use xlink:href="#path-1"></use>
                    </mask>
                    <use id="Instagram" fill="#818281" xlink:href="#path-1"></use>
                </g>
            </g>
        </g>
    </g>
</svg>