<?xml version="1.0" encoding="UTF-8"?>
<svg width="16px" height="13px" viewBox="0 0 16 13" version="1.1" xmlns="http://www.w3.org/2000/svg" xmlns:xlink="http://www.w3.org/1999/xlink">
    <!-- Generator: Sketch 48 (47235) - http://www.bohemiancoding.com/sketch -->
    <title>Twitter</title>
    <desc>Created with Sketch.</desc>
    <defs>
        <path d="M41,13.9998048 C43.4820227,14.0158788 45.8670542,13.0386033 47.6221462,11.2863559 C49.3772382,9.53410844 50.3561001,7.15294246 50.34,4.67494248 C50.34,4.53516938 50.34,4.39539629 50.34,4.25562319 C50.994038,3.78158983 51.5564838,3.19299374 52,2.51844327 C51.3996503,2.7851666 50.7625171,2.9601784 50.11,3.03760049 C50.7951404,2.62665869 51.3070113,1.98075935 51.55,1.22055023 C50.9071962,1.60292102 50.2037765,1.8730286 49.47,2.01925364 C48.4486452,0.948778093 46.8368268,0.691451957 45.5320407,1.39056005 C44.2272546,2.08966815 43.5510694,3.572913 43.88,5.01439143 C41.2437265,4.8909185 38.7834851,3.65734931 37.11,1.61990193 C36.2394219,3.11324309 36.6765244,5.02464904 38.11,5.99280311 C37.5944622,5.97439879 37.0906587,5.8341099 36.64,5.58346761 C36.64,5.58346761 36.64,5.58346761 36.64,5.58346761 C36.6192781,7.16182531 37.7293067,8.5303209 39.28,8.83818401 C38.7976952,8.97055691 38.2914548,8.99104691 37.8,8.89808677 C38.2312454,10.2336723 39.4646988,11.1482377 40.87,11.1743915 C39.7028681,12.0861897 38.261969,12.5786076 36.78,12.5721225 C36.5188548,12.564076 36.2584073,12.5407404 36,12.5022359 C37.4890457,13.4682745 39.2242242,13.9879843 41,13.9998048" id="path-1"></path>
    </defs>
    <g id="CRX_v2_Large" stroke="none" stroke-width="1" fill="none" fill-rule="evenodd" transform="translate(-1297.000000, -101.000000)">
        <g id="main-wrapper">
            <g id="navigation" transform="translate(90.000000, 90.000000)">
                <g id="social-links" transform="translate(1171.000000, 10.000000)">
                    <mask id="mask-2" fill="white">
                        <use xlink:href="#path-1"></use>
                    </mask>
                    <use id="Twitter" fill="#818281" fill-rule="nonzero" xlink:href="#path-1"></use>
                </g>
            </g>
        </g>
    </g>
</svg>